<svg xmlns="http://www.w3.org/2000/svg" viewBox="0 0 640 440" width="640" height="440" role="img" aria-label="Airflow Forex ETL Pipeline">
  <defs>
    <linearGradient id="bg" x1="0" y1="0" x2="1" y2="1">
      <stop offset="0" stop-color="#124b45"/><stop offset="1" stop-color="#12a594"/>
    </linearGradient>
    <clipPath id="c"><rect width="640" height="440"/></clipPath>
  </defs>
  <rect width="640" height="440" fill="url(#bg)"/>
  <g clip-path="url(#c)">
<path d="M184,382 q80,4 160,0" fill="none" stroke="#fff" stroke-width="2.7" stroke-linecap="round" opacity="0.19"/>
<circle cx="344" cy="382" r="3.7" fill="#fff" opacity="0.40"/>
<path d="M345,121 q108,-21 216,0" fill="none" stroke="#fff" stroke-width="2.2" stroke-linecap="round" opacity="0.26"/>
<circle cx="561" cy="121" r="3.7" fill="#fff" opacity="0.58"/>
<path d="M286,106 q111,6 222,0" fill="none" stroke="#fff" stroke-width="2.7" stroke-linecap="round" opacity="0.10"/>
<circle cx="508" cy="106" r="4.0" fill="#fff" opacity="0.66"/>
<path d="M333,392 q75,1 151,0" fill="none" stroke="#fff" stroke-width="2.3" stroke-linecap="round" opacity="0.16"/>
<circle cx="484" cy="392" r="2.4" fill="#fff" opacity="0.44"/>
<path d="M370,169 q107,-22 215,0" fill="none" stroke="#fff" stroke-width="1.7" stroke-linecap="round" opacity="0.36"/>
<circle cx="585" cy="169" r="3.4" fill="#fff" opacity="0.48"/>
<path d="M305,152 q42,24 85,0" fill="none" stroke="#fff" stroke-width="2.7" stroke-linecap="round" opacity="0.16"/>
<circle cx="390" cy="152" r="3.9" fill="#fff" opacity="0.62"/>
<path d="M10,402 q55,27 110,0" fill="none" stroke="#fff" stroke-width="2.5" stroke-linecap="round" opacity="0.11"/>
<circle cx="120" cy="402" r="3.6" fill="#fff" opacity="0.50"/>
<path d="M331,213 q112,-11 225,0" fill="none" stroke="#fff" stroke-width="2.6" stroke-linecap="round" opacity="0.22"/>
<circle cx="556" cy="213" r="2.6" fill="#fff" opacity="0.58"/>
<path d="M107,66 q58,-17 117,0" fill="none" stroke="#fff" stroke-width="2.1" stroke-linecap="round" opacity="0.35"/>
<circle cx="223" cy="66" r="2.9" fill="#fff" opacity="0.46"/>
<path d="M158,75 q92,16 184,0" fill="none" stroke="#fff" stroke-width="1.8" stroke-linecap="round" opacity="0.13"/>
<circle cx="342" cy="75" r="3.6" fill="#fff" opacity="0.43"/>
<path d="M201,109 q102,-30 203,0" fill="none" stroke="#fff" stroke-width="2.3" stroke-linecap="round" opacity="0.34"/>
<circle cx="404" cy="109" r="2.1" fill="#fff" opacity="0.42"/>
<path d="M269,131 q48,3 96,0" fill="none" stroke="#fff" stroke-width="2.9" stroke-linecap="round" opacity="0.36"/>
<circle cx="365" cy="131" r="3.9" fill="#fff" opacity="0.36"/>
<path d="M91,151 q59,-33 117,0" fill="none" stroke="#fff" stroke-width="1.3" stroke-linecap="round" opacity="0.35"/>
<circle cx="208" cy="151" r="3.8" fill="#fff" opacity="0.37"/>
<path d="M383,89 q50,-14 99,0" fill="none" stroke="#fff" stroke-width="1.1" stroke-linecap="round" opacity="0.15"/>
<circle cx="482" cy="89" r="3.2" fill="#fff" opacity="0.39"/>
<path d="M68,171 q63,-20 127,0" fill="none" stroke="#fff" stroke-width="2.5" stroke-linecap="round" opacity="0.31"/>
<circle cx="195" cy="171" r="2.9" fill="#fff" opacity="0.45"/>
<path d="M312,322 q130,-17 260,0" fill="none" stroke="#fff" stroke-width="1.6" stroke-linecap="round" opacity="0.38"/>
<circle cx="572" cy="322" r="2.7" fill="#fff" opacity="0.35"/>
<path d="M326,322 q78,-11 157,0" fill="none" stroke="#fff" stroke-width="2.4" stroke-linecap="round" opacity="0.37"/>
<circle cx="483" cy="322" r="3.1" fill="#fff" opacity="0.43"/>
<path d="M40,310 q67,39 133,0" fill="none" stroke="#fff" stroke-width="2.5" stroke-linecap="round" opacity="0.26"/>
<circle cx="173" cy="310" r="2.4" fill="#fff" opacity="0.42"/>
<path d="M123,365 q106,-26 212,0" fill="none" stroke="#fff" stroke-width="1.9" stroke-linecap="round" opacity="0.10"/>
<circle cx="335" cy="365" r="3.9" fill="#fff" opacity="0.53"/>
<path d="M161,138 q88,-33 176,0" fill="none" stroke="#fff" stroke-width="3.0" stroke-linecap="round" opacity="0.20"/>
<circle cx="338" cy="138" r="3.8" fill="#fff" opacity="0.55"/>
<path d="M148,22 q101,-13 202,0" fill="none" stroke="#fff" stroke-width="1.3" stroke-linecap="round" opacity="0.29"/>
<circle cx="351" cy="22" r="2.7" fill="#fff" opacity="0.46"/>
<path d="M54,358 q44,-21 87,0" fill="none" stroke="#fff" stroke-width="2.4" stroke-linecap="round" opacity="0.44"/>
<circle cx="141" cy="358" r="3.6" fill="#fff" opacity="0.55"/>
<path d="M1,105 q117,-21 233,0" fill="none" stroke="#fff" stroke-width="1.1" stroke-linecap="round" opacity="0.31"/>
<circle cx="234" cy="105" r="3.5" fill="#fff" opacity="0.39"/>
<path d="M26,175 q106,11 213,0" fill="none" stroke="#fff" stroke-width="1.9" stroke-linecap="round" opacity="0.32"/>
<circle cx="239" cy="175" r="2.3" fill="#fff" opacity="0.64"/>
<path d="M100,268 q51,6 102,0" fill="none" stroke="#fff" stroke-width="2.2" stroke-linecap="round" opacity="0.10"/>
<circle cx="202" cy="268" r="2.1" fill="#fff" opacity="0.41"/>
<path d="M298,217 q113,-5 226,0" fill="none" stroke="#fff" stroke-width="2.6" stroke-linecap="round" opacity="0.26"/>
<circle cx="524" cy="217" r="2.3" fill="#fff" opacity="0.38"/>
  </g>
</svg>
