<svg xmlns="http://www.w3.org/2000/svg" viewBox="0 0 640 440" width="640" height="440" role="img" aria-label="ArcGIS Feature Service Connector">
  <defs>
    <linearGradient id="bg" x1="0" y1="0" x2="1" y2="1">
      <stop offset="0" stop-color="#062b2a"/><stop offset="1" stop-color="#115e59"/>
    </linearGradient>
    <clipPath id="c"><rect width="640" height="440"/></clipPath>
  </defs>
  <rect width="640" height="440" fill="url(#bg)"/>
  <g clip-path="url(#c)">
<path d="M309,406 q80,-15 161,0" fill="none" stroke="#fff" stroke-width="1.7" stroke-linecap="round" opacity="0.39"/>
<circle cx="470" cy="406" r="2.6" fill="#fff" opacity="0.39"/>
<path d="M100,388 q67,-29 134,0" fill="none" stroke="#fff" stroke-width="1.4" stroke-linecap="round" opacity="0.43"/>
<circle cx="235" cy="388" r="4.0" fill="#fff" opacity="0.35"/>
<path d="M87,358 q42,-33 83,0" fill="none" stroke="#fff" stroke-width="1.6" stroke-linecap="round" opacity="0.41"/>
<circle cx="170" cy="358" r="3.7" fill="#fff" opacity="0.34"/>
<path d="M287,355 q62,7 124,0" fill="none" stroke="#fff" stroke-width="2.5" stroke-linecap="round" opacity="0.36"/>
<circle cx="412" cy="355" r="3.5" fill="#fff" opacity="0.45"/>
<path d="M-27,412 q67,-27 135,0" fill="none" stroke="#fff" stroke-width="2.7" stroke-linecap="round" opacity="0.13"/>
<circle cx="108" cy="412" r="2.9" fill="#fff" opacity="0.35"/>
<path d="M12,362 q61,-21 121,0" fill="none" stroke="#fff" stroke-width="1.6" stroke-linecap="round" opacity="0.12"/>
<circle cx="133" cy="362" r="3.3" fill="#fff" opacity="0.38"/>
<path d="M273,147 q90,-21 180,0" fill="none" stroke="#fff" stroke-width="2.6" stroke-linecap="round" opacity="0.20"/>
<circle cx="454" cy="147" r="2.5" fill="#fff" opacity="0.47"/>
<path d="M80,91 q80,-13 161,0" fill="none" stroke="#fff" stroke-width="2.0" stroke-linecap="round" opacity="0.21"/>
<circle cx="240" cy="91" r="3.8" fill="#fff" opacity="0.38"/>
<path d="M37,305 q71,-12 141,0" fill="none" stroke="#fff" stroke-width="2.7" stroke-linecap="round" opacity="0.23"/>
<circle cx="178" cy="305" r="2.1" fill="#fff" opacity="0.41"/>
<path d="M173,36 q56,-24 112,0" fill="none" stroke="#fff" stroke-width="1.7" stroke-linecap="round" opacity="0.19"/>
<circle cx="285" cy="36" r="3.3" fill="#fff" opacity="0.34"/>
<path d="M240,340 q62,32 124,0" fill="none" stroke="#fff" stroke-width="1.9" stroke-linecap="round" opacity="0.40"/>
<circle cx="364" cy="340" r="2.0" fill="#fff" opacity="0.62"/>
<path d="M41,198 q117,14 234,0" fill="none" stroke="#fff" stroke-width="2.5" stroke-linecap="round" opacity="0.25"/>
<circle cx="275" cy="198" r="2.9" fill="#fff" opacity="0.37"/>
<path d="M63,151 q71,23 142,0" fill="none" stroke="#fff" stroke-width="2.0" stroke-linecap="round" opacity="0.41"/>
<circle cx="205" cy="151" r="2.3" fill="#fff" opacity="0.45"/>
<path d="M12,95 q103,27 205,0" fill="none" stroke="#fff" stroke-width="1.8" stroke-linecap="round" opacity="0.15"/>
<circle cx="217" cy="95" r="3.6" fill="#fff" opacity="0.57"/>
<path d="M288,351 q110,26 221,0" fill="none" stroke="#fff" stroke-width="2.8" stroke-linecap="round" opacity="0.36"/>
<circle cx="509" cy="351" r="3.9" fill="#fff" opacity="0.49"/>
<path d="M156,196 q45,-15 91,0" fill="none" stroke="#fff" stroke-width="1.7" stroke-linecap="round" opacity="0.42"/>
<circle cx="247" cy="196" r="3.8" fill="#fff" opacity="0.51"/>
<path d="M381,117 q104,-26 208,0" fill="none" stroke="#fff" stroke-width="2.1" stroke-linecap="round" opacity="0.12"/>
<circle cx="589" cy="117" r="3.1" fill="#fff" opacity="0.69"/>
<path d="M337,46 q125,-21 249,0" fill="none" stroke="#fff" stroke-width="1.2" stroke-linecap="round" opacity="0.13"/>
<circle cx="587" cy="46" r="4.0" fill="#fff" opacity="0.37"/>
<path d="M163,120 q87,-37 173,0" fill="none" stroke="#fff" stroke-width="2.8" stroke-linecap="round" opacity="0.22"/>
<circle cx="337" cy="120" r="3.1" fill="#fff" opacity="0.58"/>
<path d="M272,126 q114,-40 229,0" fill="none" stroke="#fff" stroke-width="2.6" stroke-linecap="round" opacity="0.11"/>
<circle cx="501" cy="126" r="4.0" fill="#fff" opacity="0.43"/>
<path d="M335,166 q73,-20 146,0" fill="none" stroke="#fff" stroke-width="2.8" stroke-linecap="round" opacity="0.40"/>
<circle cx="481" cy="166" r="2.9" fill="#fff" opacity="0.36"/>
<path d="M25,150 q92,5 185,0" fill="none" stroke="#fff" stroke-width="1.3" stroke-linecap="round" opacity="0.34"/>
<circle cx="210" cy="150" r="2.2" fill="#fff" opacity="0.43"/>
<path d="M197,237 q94,-26 187,0" fill="none" stroke="#fff" stroke-width="1.0" stroke-linecap="round" opacity="0.44"/>
<circle cx="384" cy="237" r="2.7" fill="#fff" opacity="0.34"/>
<path d="M289,352 q73,-28 147,0" fill="none" stroke="#fff" stroke-width="2.4" stroke-linecap="round" opacity="0.16"/>
<circle cx="436" cy="352" r="3.4" fill="#fff" opacity="0.56"/>
<path d="M186,289 q51,-12 102,0" fill="none" stroke="#fff" stroke-width="2.2" stroke-linecap="round" opacity="0.43"/>
<circle cx="287" cy="289" r="2.4" fill="#fff" opacity="0.67"/>
<path d="M53,34 q74,6 149,0" fill="none" stroke="#fff" stroke-width="1.4" stroke-linecap="round" opacity="0.42"/>
<circle cx="202" cy="34" r="2.3" fill="#fff" opacity="0.70"/>
  </g>
</svg>
