<svg xmlns="http://www.w3.org/2000/svg" viewBox="0 0 640 440" width="640" height="440" role="img" aria-label="Perth POI Ingestion Pipeline">
  <defs>
    <linearGradient id="bg" x1="0" y1="0" x2="1" y2="1">
      <stop offset="0" stop-color="#062b2a"/><stop offset="1" stop-color="#115e59"/>
    </linearGradient>
    <clipPath id="c"><rect width="640" height="440"/></clipPath>
  </defs>
  <rect width="640" height="440" fill="url(#bg)"/>
  <g clip-path="url(#c)">
<circle cx="549" cy="166" r="11" fill="#fff" opacity="0.16" stroke="#fff" stroke-opacity="0.25"/>
<circle cx="377" cy="114" r="5" fill="#fff" opacity="0.19" stroke="#fff" stroke-opacity="0.25"/>
<circle cx="57" cy="73" r="4" fill="#fff" opacity="0.12" stroke="#fff" stroke-opacity="0.25"/>
<circle cx="141" cy="186" r="21" fill="#fff" opacity="0.21" stroke="#fff" stroke-opacity="0.25"/>
<circle cx="407" cy="68" r="5" fill="#fff" opacity="0.28" stroke="#fff" stroke-opacity="0.25"/>
<circle cx="269" cy="226" r="16" fill="#fff" opacity="0.27" stroke="#fff" stroke-opacity="0.25"/>
<circle cx="354" cy="104" r="5" fill="#fff" opacity="0.18" stroke="#fff" stroke-opacity="0.25"/>
<circle cx="304" cy="158" r="23" fill="#fff" opacity="0.20" stroke="#fff" stroke-opacity="0.25"/>
<circle cx="300" cy="33" r="24" fill="#fff" opacity="0.17" stroke="#fff" stroke-opacity="0.25"/>
<circle cx="608" cy="275" r="14" fill="#fff" opacity="0.09" stroke="#fff" stroke-opacity="0.25"/>
<circle cx="403" cy="264" r="18" fill="#fff" opacity="0.09" stroke="#fff" stroke-opacity="0.25"/>
<circle cx="294" cy="150" r="14" fill="#fff" opacity="0.28" stroke="#fff" stroke-opacity="0.25"/>
<circle cx="233" cy="349" r="21" fill="#fff" opacity="0.15" stroke="#fff" stroke-opacity="0.25"/>
<circle cx="576" cy="249" r="13" fill="#fff" opacity="0.23" stroke="#fff" stroke-opacity="0.25"/>
<circle cx="198" cy="47" r="8" fill="#fff" opacity="0.29" stroke="#fff" stroke-opacity="0.25"/>
<circle cx="178" cy="187" r="13" fill="#fff" opacity="0.16" stroke="#fff" stroke-opacity="0.25"/>
<circle cx="345" cy="151" r="7" fill="#fff" opacity="0.29" stroke="#fff" stroke-opacity="0.25"/>
<circle cx="270" cy="382" r="8" fill="#fff" opacity="0.30" stroke="#fff" stroke-opacity="0.25"/>
<circle cx="304" cy="34" r="23" fill="#fff" opacity="0.16" stroke="#fff" stroke-opacity="0.25"/>
<circle cx="548" cy="167" r="15" fill="#fff" opacity="0.17" stroke="#fff" stroke-opacity="0.25"/>
<circle cx="299" cy="94" r="18" fill="#fff" opacity="0.11" stroke="#fff" stroke-opacity="0.25"/>
<circle cx="402" cy="184" r="10" fill="#fff" opacity="0.29" stroke="#fff" stroke-opacity="0.25"/>
<circle cx="218" cy="220" r="24" fill="#fff" opacity="0.18" stroke="#fff" stroke-opacity="0.25"/>
<circle cx="72" cy="144" r="26" fill="#fff" opacity="0.16" stroke="#fff" stroke-opacity="0.25"/>
<circle cx="347" cy="261" r="24" fill="#fff" opacity="0.11" stroke="#fff" stroke-opacity="0.25"/>
<circle cx="514" cy="200" r="10" fill="#fff" opacity="0.13" stroke="#fff" stroke-opacity="0.25"/>
<circle cx="585" cy="339" r="16" fill="#fff" opacity="0.10" stroke="#fff" stroke-opacity="0.25"/>
<circle cx="87" cy="350" r="19" fill="#fff" opacity="0.23" stroke="#fff" stroke-opacity="0.25"/>
<circle cx="539" cy="327" r="7" fill="#fff" opacity="0.15" stroke="#fff" stroke-opacity="0.25"/>
<circle cx="222" cy="183" r="25" fill="#fff" opacity="0.10" stroke="#fff" stroke-opacity="0.25"/>
<circle cx="406" cy="78" r="20" fill="#fff" opacity="0.11" stroke="#fff" stroke-opacity="0.25"/>
<circle cx="342" cy="205" r="23" fill="#fff" opacity="0.25" stroke="#fff" stroke-opacity="0.25"/>
<circle cx="498" cy="162" r="13" fill="#fff" opacity="0.16" stroke="#fff" stroke-opacity="0.25"/>
<circle cx="169" cy="206" r="23" fill="#fff" opacity="0.19" stroke="#fff" stroke-opacity="0.25"/>
  </g>
</svg>
